# xmcd CD database file
#
# Track frame offsets:
#	150
#	13567
#	36605
#	61117
#	73387
#	103667
#	120842
#	145992
#	160170
#	178720
#	199465
#	213122
#	242752
#	271657
#	283130
#	303335
#	319140
#	338372
#
# Disc length: 4733 seconds
#
# Revision: 0
# Processed by: cddbd v1.5PL3 Copyright (c) Steve Scherf et al.
# Submitted via: CDex 1.60beta1
#
DISCID=07127b12
DTITLE=Neville Dickie and Louis Mazetier - Harlem Strut
DYEAR=1996
DGENRE=Jazz
TTITLE0=Harlem Strut
TTITLE1=Carolina In The Morning
TTITLE2=Viper's Drag
TTITLE3=The Bells Of St. Mary's
TTITLE4=Sugar (That Sugar Baby o' Mine)
TTITLE5=Everybody Loves My Baby
TTITLE6=Wrap Your Troubles In Dreams
TTITLE7=I'll Dance At Your Wedding
TTITLE8='Tain't Nobody's Biz-ness If I Do
TTITLE9=Roumania
TTITLE10=Laughin' Cryin' Blues
TTITLE11=All By Myself
TTITLE12=Take It From Me, I'm Talking To You
TTITLE13=Whitewash Man
TTITLE14=My Honey's Lovin' Arms
TTITLE15=Troublesome Ivories
TTITLE16=Honey Hush
TTITLE17=How Could I Be Blue?
EXTD=YEAR: 1996
EXTT0=
EXTT1=
EXTT2=
EXTT3=
EXTT4=
EXTT5=
EXTT6=
EXTT7=
EXTT8=
EXTT9=
EXTT10=
EXTT11=
EXTT12=
EXTT13=
EXTT14=
EXTT15=
EXTT16=
EXTT17=
PLAYORDER=
